<?xml version="1.0" encoding="utf-8"?>
<!-- Generator: Adobe Illustrator 24.0.1, SVG Export Plug-In . SVG Version: 6.00 Build 0)  -->
<svg version="1.1" id="Layer_1" xmlns="http://www.w3.org/2000/svg" xmlns:xlink="http://www.w3.org/1999/xlink" x="0px" y="0px"
	 viewBox="0 0 127.5 127.5" style="enable-background:new 0 0 127.5 127.5;" xml:space="preserve">
<style type="text/css">
	.st0{display:none;}
	.st1{display:inline;}
	.st2{display:inline;fill:#FFFFFF;}
	.st3{clip-path:url(#SVGID_2_);fill:url(#SVGID_3_);}
	.st4{clip-path:url(#SVGID_5_);fill:url(#SVGID_6_);}
	.st5{clip-path:url(#SVGID_8_);fill:url(#SVGID_9_);}
	.st6{clip-path:url(#SVGID_11_);fill:url(#SVGID_12_);}
	.st7{clip-path:url(#SVGID_14_);fill:url(#SVGID_15_);}
	.st8{clip-path:url(#SVGID_17_);fill:url(#SVGID_18_);}
	.st9{clip-path:url(#SVGID_20_);fill:url(#SVGID_21_);}
	.st10{clip-path:url(#SVGID_23_);fill:url(#SVGID_24_);}
	.st11{clip-path:url(#SVGID_26_);fill:url(#SVGID_27_);}
	.st12{fill:#07DDB6;}
	.st13{display:inline;fill:#07DDB6;}
	.st14{fill:#844BB8;}
	.st15{display:inline;fill:#844BB8;}
	.st16{fill:#056CF2;}
	.st17{display:inline;fill:#056CF2;}
	.st18{display:inline;fill:none;stroke:#000000;stroke-width:0.5;stroke-miterlimit:10;}
	.st19{fill:#F82249;}
</style>
<g id="Logo_1" class="st0">
	<path class="st1" d="M55.1,9.1c-22.8,0-41.3,18.5-41.3,41.3s18.5,41.3,41.3,41.3h41.3V50.3C96.4,27.5,77.9,9.1,55.1,9.1z"/>
	<g class="st1">
		<path d="M660.7,60c-17.6,0-38.1,0-55.7,0c-0.7,0-1.3,0.1-2.2,0.1c5.1,9,20.3,14.5,31.5,3.4c5,4.7,10,9.4,15.4,14.4
			c-2.8,2.2-5.4,4.5-8.3,6.3c-7.4,4.6-15.4,6.7-24.2,6.1c-9.6-0.7-18-4-25-10.5c-9.4-8.6-13.9-19.4-13.3-32.2
			c0.8-18.6,14.6-34.7,33.4-38.4C633.8,5,655,19,659.7,40.3c0.6,2.8,0.8,5.7,1,8.6c0.2,3.1,0,6.3,0.1,9.5L660.7,60z M602.9,39.1
			c11.3,0,22.6,0,33.8,0c-2.1-4.6-8.5-9.5-16.6-9.8C613.2,29.2,605.1,33.7,602.9,39.1z"/>
		<path d="M357.1,49.5c0.2,22.7-18.3,41.5-41.6,41.5c-23.1,0-41.7-18.3-41.6-42.1c0.2-23.3,19.2-40.8,41.5-40.9
			C338.1,8,357.5,26.7,357.1,49.5z M295.6,49.6c-0.2,10.2,8.2,19.8,20,19.9c10.8,0.1,19.7-9,19.7-19.7s-8.3-20.1-19.8-20.1
			C303.8,29.7,295.4,39.4,295.6,49.6z"/>
		<path d="M228.7,8.1c22.6-0.3,41.7,18.6,41.6,41.5C270.1,71.4,252.7,91,228.8,91c-23.3,0-41.8-18.8-41.5-42.2
			C187.5,26.5,205.7,7.9,228.7,8.1z M248.7,49.6c-0.3-11.1-8.9-19.8-19.9-19.9c-10.9-0.1-20,9.1-20,20c0,10.7,9.1,19.9,20,19.8
			C239.9,69.4,248.5,60.6,248.7,49.6z"/>
		<path d="M186.1,25.8c-5.8,4-11.6,8.1-17.3,12.1c-9-11.4-23.6-9.5-30.7-1.8c-7.2,7.8-6.9,20.2,0.6,27.6c7.6,7.6,21.9,8.4,30.3-2.6
			c5.9,4,11.7,8,17.8,12.1c-3.9,5.5-8.7,9.8-14.5,13c-7.8,4.2-16.1,5.7-24.8,4.7c-20.4-2.4-34.6-18.9-36.1-37
			c-1.9-23.3,13.6-40,30.3-44.4C159.8,4.6,177.9,13.4,186.1,25.8z"/>
		<path d="M447.5,91.6H446c-20.5-0.5-38.9-15.3-42.7-36.3c-0.5-2.6-0.8-5.4-0.8-8c-0.1-18.6,0-38.7-0.1-57.3l21.6-6.9V9h23.4
			c0,6.7,0,13.3,0,20.1H424V47c0.1,11.6,8.8,21.4,20.3,22.9c1,0.1,2,0.3,3.2,0.4V91.6z"/>
		<path d="M387.8-27.4c0,38.4,0,79,0,117.4c-5.7,0-21.5,0-21.7,0c0-36.2,0-74,0-110.3L387.8-27.4z"/>
		<path d="M535.9,54.3c0.4-19.7,9.6-34,27.2-42.9c5.8-2.9,12-4.3,18.5-4.4h1.5c0,7.1,0,14.3,0,21.4c-2,0.2-3.9,0.5-5.8,1
			c-10.4,2.5-18.1,11.1-19.5,21.7c-0.2,1.5-0.2,3-0.2,4.5c0,10.9,0,23.7,0,34.6h-21.7V54.3z"/>
		<path d="M502.8,9v45.7c0,8.1-6.6,14.7-14.7,14.7s-14.7-6.6-14.7-14.7V9h-21.8v45.7l0,0c0,20.1,16.3,36.4,36.4,36.4
			s36.4-16.3,36.4-36.4l0,0V9H502.8z"/>
	</g>
	<polygon class="st2" points="36.1,31.3 53.5,40.2 67.4,26.3 64.3,45.7 81.8,54.6 62.4,57.6 59.4,77 50.5,59.5 31.1,62.6 45,48.7 	
		"/>
</g>
<g id="Color" class="st0">
	<g class="st1">
		<g>
			<g>
				<defs>
					<path id="SVGID_1_" d="M660.7,60c-17.6,0-38.1,0-55.7,0c-0.7,0-1.3,0.1-2.2,0.1c5.1,9,20.3,14.5,31.5,3.4
						c5,4.7,10,9.4,15.4,14.4c-2.8,2.2-5.4,4.5-8.3,6.3c-7.4,4.6-15.4,6.7-24.2,6.1c-9.6-0.7-18-4-25-10.5
						c-9.4-8.6-13.9-19.4-13.3-32.2c0.8-18.6,14.6-34.7,33.4-38.4C633.8,5,655,19,659.7,40.3c0.6,2.8,0.8,5.7,1,8.6
						c0.2,3.1,0,6.3,0.1,9.5L660.7,60z M602.9,39.1c11.3,0,22.6,0,33.8,0c-2.1-4.6-8.5-9.5-16.6-9.8
						C613.2,29.2,605.1,33.7,602.9,39.1z"/>
				</defs>
				<clipPath id="SVGID_2_">
					<use xlink:href="#SVGID_1_"  style="overflow:visible;"/>
				</clipPath>
				
					<linearGradient id="SVGID_3_" gradientUnits="userSpaceOnUse" x1="2.8" y1="-52.9256" x2="700.6" y2="-52.9256" gradientTransform="matrix(1 0 0 1 0 79.2756)">
					<stop  offset="0" style="stop-color:#ED6C30"/>
					<stop  offset="1" style="stop-color:#E7502E"/>
				</linearGradient>
				<rect x="2.8" y="-78.6" class="st3" width="697.8" height="209.9"/>
			</g>
		</g>
	</g>
	<g class="st1">
		<g>
			<g>
				<defs>
					<path id="SVGID_4_" d="M357.1,49.5c0.2,22.7-18.3,41.5-41.6,41.5c-23.1,0-41.7-18.3-41.6-42.1c0.2-23.3,19.2-40.8,41.5-40.9
						C338.1,8,357.5,26.7,357.1,49.5z M295.6,49.6c-0.2,10.2,8.2,19.8,20,19.9c10.8,0.1,19.7-9,19.7-19.7s-8.3-20.1-19.8-20.1
						C303.8,29.7,295.4,39.4,295.6,49.6z"/>
				</defs>
				<clipPath id="SVGID_5_">
					<use xlink:href="#SVGID_4_"  style="overflow:visible;"/>
				</clipPath>
				
					<linearGradient id="SVGID_6_" gradientUnits="userSpaceOnUse" x1="2.8" y1="-52.9256" x2="700.6" y2="-52.9256" gradientTransform="matrix(1 0 0 1 0 79.2756)">
					<stop  offset="0" style="stop-color:#ED6C30"/>
					<stop  offset="1" style="stop-color:#E7502E"/>
				</linearGradient>
				<rect x="2.8" y="-78.6" class="st4" width="697.8" height="209.9"/>
			</g>
		</g>
	</g>
	<g class="st1">
		<g>
			<g>
				<defs>
					<path id="SVGID_7_" d="M228.7,8.1c22.6-0.3,41.7,18.6,41.6,41.5C270.1,71.4,252.7,91,228.8,91c-23.3,0-41.8-18.8-41.5-42.2
						C187.5,26.5,205.7,7.9,228.7,8.1z M248.7,49.6c-0.3-11.1-8.9-19.8-19.9-19.9c-10.9-0.1-20,9.1-20,20c0,10.7,9.1,19.9,20,19.8
						C239.9,69.4,248.5,60.6,248.7,49.6z"/>
				</defs>
				<clipPath id="SVGID_8_">
					<use xlink:href="#SVGID_7_"  style="overflow:visible;"/>
				</clipPath>
				
					<linearGradient id="SVGID_9_" gradientUnits="userSpaceOnUse" x1="2.8" y1="-52.9256" x2="700.6" y2="-52.9256" gradientTransform="matrix(1 0 0 1 0 79.2756)">
					<stop  offset="0" style="stop-color:#ED6C30"/>
					<stop  offset="1" style="stop-color:#E7502E"/>
				</linearGradient>
				<rect x="2.8" y="-78.6" class="st5" width="697.8" height="209.9"/>
			</g>
		</g>
	</g>
	<g class="st1">
		<g>
			<g>
				<defs>
					<path id="SVGID_10_" d="M186.1,25.8c-5.8,4-11.6,8.1-17.3,12.1c-9-11.4-23.6-9.5-30.7-1.8c-7.2,7.8-6.9,20.2,0.6,27.6
						c7.6,7.6,21.9,8.4,30.3-2.6c5.9,4,11.7,8,17.8,12.1c-3.9,5.5-8.7,9.8-14.5,13c-7.8,4.2-16.1,5.7-24.8,4.7
						c-20.4-2.4-34.6-18.9-36.1-37c-1.9-23.3,13.6-40,30.3-44.4C159.8,4.6,177.9,13.4,186.1,25.8z"/>
				</defs>
				<clipPath id="SVGID_11_">
					<use xlink:href="#SVGID_10_"  style="overflow:visible;"/>
				</clipPath>
				
					<linearGradient id="SVGID_12_" gradientUnits="userSpaceOnUse" x1="2.8" y1="-52.9256" x2="700.6" y2="-52.9256" gradientTransform="matrix(1 0 0 1 0 79.2756)">
					<stop  offset="0" style="stop-color:#ED6C30"/>
					<stop  offset="1" style="stop-color:#E7502E"/>
				</linearGradient>
				<rect x="2.8" y="-78.6" class="st6" width="697.8" height="209.9"/>
			</g>
		</g>
	</g>
	<g class="st1">
		<g>
			<g>
				<defs>
					<path id="SVGID_13_" d="M447.5,91.6H446c-20.5-0.5-38.9-15.3-42.7-36.3c-0.5-2.6-0.8-5.4-0.8-8c-0.1-18.6,0-38.7-0.1-57.3
						l21.6-6.9V9h23.4c0,6.7,0,13.3,0,20.1H424V47c0.1,11.6,8.8,21.4,20.3,22.9c1,0.1,2,0.3,3.2,0.4V91.6z"/>
				</defs>
				<clipPath id="SVGID_14_">
					<use xlink:href="#SVGID_13_"  style="overflow:visible;"/>
				</clipPath>
				
					<linearGradient id="SVGID_15_" gradientUnits="userSpaceOnUse" x1="2.8" y1="-52.9256" x2="700.6" y2="-52.9256" gradientTransform="matrix(1 0 0 1 0 79.2756)">
					<stop  offset="0" style="stop-color:#ED6C30"/>
					<stop  offset="1" style="stop-color:#E7502E"/>
				</linearGradient>
				<rect x="2.8" y="-78.6" class="st7" width="697.8" height="209.9"/>
			</g>
		</g>
	</g>
	<g class="st1">
		<g>
			<g>
				<defs>
					<path id="SVGID_16_" d="M387.8-27.4c0,38.4,0,79,0,117.4c-5.7,0-21.5,0-21.7,0c0-36.2,0-74,0-110.3L387.8-27.4z"/>
				</defs>
				<clipPath id="SVGID_17_">
					<use xlink:href="#SVGID_16_"  style="overflow:visible;"/>
				</clipPath>
				
					<linearGradient id="SVGID_18_" gradientUnits="userSpaceOnUse" x1="2.8" y1="-52.9256" x2="700.6" y2="-52.9256" gradientTransform="matrix(1 0 0 1 0 79.2756)">
					<stop  offset="0" style="stop-color:#ED6C30"/>
					<stop  offset="1" style="stop-color:#E7502E"/>
				</linearGradient>
				<rect x="2.8" y="-78.6" class="st8" width="697.8" height="209.9"/>
			</g>
		</g>
	</g>
	<g class="st1">
		<g>
			<g>
				<defs>
					<path id="SVGID_19_" d="M535.9,54.3c0.4-19.7,9.6-34,27.2-42.9c5.8-2.9,12-4.3,18.5-4.4h1.5c0,7.1,0,14.3,0,21.4
						c-2,0.2-3.9,0.5-5.8,1c-10.4,2.5-18.1,11.1-19.5,21.7c-0.2,1.5-0.2,3-0.2,4.5c0,10.9,0,23.7,0,34.6h-21.7V54.3z"/>
				</defs>
				<clipPath id="SVGID_20_">
					<use xlink:href="#SVGID_19_"  style="overflow:visible;"/>
				</clipPath>
				
					<linearGradient id="SVGID_21_" gradientUnits="userSpaceOnUse" x1="2.8" y1="-52.9256" x2="700.6" y2="-52.9256" gradientTransform="matrix(1 0 0 1 0 79.2756)">
					<stop  offset="0" style="stop-color:#ED6C30"/>
					<stop  offset="1" style="stop-color:#E7502E"/>
				</linearGradient>
				<rect x="2.8" y="-78.6" class="st9" width="697.8" height="209.9"/>
			</g>
		</g>
	</g>
	<g class="st1">
		<g>
			<g>
				<defs>
					<path id="SVGID_22_" d="M502.8,9v45.7c0,8.1-6.6,14.7-14.7,14.7s-14.7-6.6-14.7-14.7V9h-21.8v45.7l0,0
						c0,20.1,16.3,36.4,36.4,36.4s36.4-16.3,36.4-36.4l0,0V9H502.8z"/>
				</defs>
				<clipPath id="SVGID_23_">
					<use xlink:href="#SVGID_22_"  style="overflow:visible;"/>
				</clipPath>
				
					<linearGradient id="SVGID_24_" gradientUnits="userSpaceOnUse" x1="2.8" y1="-52.9256" x2="700.6" y2="-52.9256" gradientTransform="matrix(1 0 0 1 0 79.2756)">
					<stop  offset="0" style="stop-color:#ED6C30"/>
					<stop  offset="1" style="stop-color:#E7502E"/>
				</linearGradient>
				<rect x="2.8" y="-78.6" class="st10" width="697.8" height="209.9"/>
			</g>
		</g>
	</g>
	<g class="st1">
		<g>
			<g>
				<defs>
					<path id="SVGID_25_" d="M55.1,9.1c-22.8,0-41.3,18.5-41.3,41.3s18.5,41.3,41.3,41.3h41.3V50.3C96.4,27.5,77.9,9.1,55.1,9.1z
						 M62.4,57.6l-3,19.4l-8.9-17.5l-19.3,3.1L45,48.7l-8.9-17.5l17.5,8.9l13.8-13.8l-3.1,19.3l17.5,8.9L62.4,57.6z"/>
				</defs>
				<clipPath id="SVGID_26_">
					<use xlink:href="#SVGID_25_"  style="overflow:visible;"/>
				</clipPath>
				
					<linearGradient id="SVGID_27_" gradientUnits="userSpaceOnUse" x1="2.8" y1="-52.9256" x2="700.6" y2="-52.9256" gradientTransform="matrix(1 0 0 1 0 79.2756)">
					<stop  offset="0" style="stop-color:#ED6C30"/>
					<stop  offset="1" style="stop-color:#E7502E"/>
				</linearGradient>
				<rect x="2.8" y="-78.6" class="st11" width="697.8" height="209.9"/>
			</g>
		</g>
	</g>
</g>
<g id="Layer_4" class="st0">
	<g class="st1">
		<path class="st12" d="M660.7,60c-17.6,0-38.1,0-55.7,0c-0.7,0-1.3,0.1-2.2,0.1c5.1,9,20.3,14.5,31.5,3.4c5,4.7,10,9.4,15.4,14.4
			c-2.8,2.2-5.4,4.5-8.3,6.3c-7.4,4.6-15.4,6.7-24.2,6.1c-9.6-0.7-18-4-25-10.5c-9.4-8.6-13.9-19.4-13.3-32.2
			c0.8-18.6,14.6-34.7,33.4-38.4C633.8,5,655,19,659.7,40.3c0.6,2.8,0.8,5.7,1,8.6c0.2,3.1,0,6.3,0.1,9.5L660.7,60z M602.9,39.1
			c11.3,0,22.6,0,33.8,0c-2.1-4.6-8.5-9.5-16.6-9.8C613.2,29.2,605.1,33.7,602.9,39.1z"/>
		<path class="st12" d="M357.1,49.5c0.2,22.7-18.3,41.5-41.6,41.5c-23.1,0-41.7-18.3-41.6-42.1c0.2-23.3,19.2-40.8,41.5-40.9
			C338.1,8,357.5,26.7,357.1,49.5z M295.6,49.6c-0.2,10.2,8.2,19.8,20,19.9c10.8,0.1,19.7-9,19.7-19.7s-8.3-20.1-19.8-20.1
			C303.8,29.7,295.4,39.4,295.6,49.6z"/>
		<path class="st12" d="M228.7,8.1c22.6-0.3,41.7,18.6,41.6,41.5C270.1,71.4,252.7,91,228.8,91c-23.3,0-41.8-18.8-41.5-42.2
			C187.5,26.5,205.7,7.9,228.7,8.1z M248.7,49.6c-0.3-11.1-8.9-19.8-19.9-19.9c-10.9-0.1-20,9.1-20,20c0,10.7,9.1,19.9,20,19.8
			C239.9,69.4,248.5,60.6,248.7,49.6z"/>
		<path class="st12" d="M186.1,25.8c-5.8,4-11.6,8.1-17.3,12.1c-9-11.4-23.6-9.5-30.7-1.8c-7.2,7.8-6.9,20.2,0.6,27.6
			c7.6,7.6,21.9,8.4,30.3-2.6c5.9,4,11.7,8,17.8,12.1c-3.9,5.5-8.7,9.8-14.5,13c-7.8,4.2-16.1,5.7-24.8,4.7
			c-20.4-2.4-34.6-18.9-36.1-37c-1.9-23.3,13.6-40,30.3-44.4C159.8,4.6,177.9,13.4,186.1,25.8z"/>
		<path class="st12" d="M447.5,91.6H446c-20.5-0.5-38.9-15.3-42.7-36.3c-0.5-2.6-0.8-5.4-0.8-8c-0.1-18.6,0-38.7-0.1-57.3l21.6-6.9
			V9h23.4c0,6.7,0,13.3,0,20.1H424V47c0.1,11.6,8.8,21.4,20.3,22.9c1,0.1,2,0.3,3.2,0.4V91.6z"/>
		<path class="st12" d="M387.8-27.4c0,38.4,0,79,0,117.4c-5.7,0-21.5,0-21.7,0c0-36.2,0-74,0-110.3L387.8-27.4z"/>
		<path class="st12" d="M535.9,54.3c0.4-19.7,9.6-34,27.2-42.9c5.8-2.9,12-4.3,18.5-4.4h1.5c0,7.1,0,14.3,0,21.4
			c-2,0.2-3.9,0.5-5.8,1c-10.4,2.5-18.1,11.1-19.5,21.7c-0.2,1.5-0.2,3-0.2,4.5c0,10.9,0,23.7,0,34.6h-21.7V54.3z"/>
		<path class="st12" d="M502.8,9v45.7c0,8.1-6.6,14.7-14.7,14.7s-14.7-6.6-14.7-14.7V9h-21.8v45.7l0,0c0,20.1,16.3,36.4,36.4,36.4
			s36.4-16.3,36.4-36.4l0,0V9H502.8z"/>
	</g>
	<path class="st13" d="M55.1,9.1c-22.8,0-41.3,18.5-41.3,41.3s18.5,41.3,41.3,41.3h41.3V50.3C96.4,27.5,77.9,9.1,55.1,9.1z
		 M62.4,57.6l-3,19.4l-8.9-17.5l-19.3,3.1L45,48.7l-8.9-17.5l17.5,8.9l13.8-13.8l-3.1,19.3l17.5,8.9L62.4,57.6z"/>
</g>
<g id="Layer_5" class="st0">
	<g class="st1">
		<path class="st14" d="M660.7,60c-17.6,0-38.1,0-55.7,0c-0.7,0-1.3,0.1-2.2,0.1c5.1,9,20.3,14.5,31.5,3.4c5,4.7,10,9.4,15.4,14.4
			c-2.8,2.2-5.4,4.5-8.3,6.3c-7.4,4.6-15.4,6.7-24.2,6.1c-9.6-0.7-18-4-25-10.5c-9.4-8.6-13.9-19.4-13.3-32.2
			c0.8-18.6,14.6-34.7,33.4-38.4C633.8,5,655,19,659.7,40.3c0.6,2.8,0.8,5.7,1,8.6c0.2,3.1,0,6.3,0.1,9.5L660.7,60z M602.9,39.1
			c11.3,0,22.6,0,33.8,0c-2.1-4.6-8.5-9.5-16.6-9.8C613.2,29.2,605.1,33.7,602.9,39.1z"/>
		<path class="st14" d="M357.1,49.5c0.2,22.7-18.3,41.5-41.6,41.5c-23.1,0-41.7-18.3-41.6-42.1c0.2-23.3,19.2-40.8,41.5-40.9
			C338.1,8,357.5,26.7,357.1,49.5z M295.6,49.6c-0.2,10.2,8.2,19.8,20,19.9c10.8,0.1,19.7-9,19.7-19.7s-8.3-20.1-19.8-20.1
			C303.8,29.7,295.4,39.4,295.6,49.6z"/>
		<path class="st14" d="M228.7,8.1c22.6-0.3,41.7,18.6,41.6,41.5C270.1,71.4,252.7,91,228.8,91c-23.3,0-41.8-18.8-41.5-42.2
			C187.5,26.5,205.7,7.9,228.7,8.1z M248.7,49.6c-0.3-11.1-8.9-19.8-19.9-19.9c-10.9-0.1-20,9.1-20,20c0,10.7,9.1,19.9,20,19.8
			C239.9,69.4,248.5,60.6,248.7,49.6z"/>
		<path class="st14" d="M186.1,25.8c-5.8,4-11.6,8.1-17.3,12.1c-9-11.4-23.6-9.5-30.7-1.8c-7.2,7.8-6.9,20.2,0.6,27.6
			c7.6,7.6,21.9,8.4,30.3-2.6c5.9,4,11.7,8,17.8,12.1c-3.9,5.5-8.7,9.8-14.5,13c-7.8,4.2-16.1,5.7-24.8,4.7
			c-20.4-2.4-34.6-18.9-36.1-37c-1.9-23.3,13.6-40,30.3-44.4C159.8,4.6,177.9,13.4,186.1,25.8z"/>
		<path class="st14" d="M447.5,91.6H446c-20.5-0.5-38.9-15.3-42.7-36.3c-0.5-2.6-0.8-5.4-0.8-8c-0.1-18.6,0-38.7-0.1-57.3l21.6-6.9
			V9h23.4c0,6.7,0,13.3,0,20.1H424V47c0.1,11.6,8.8,21.4,20.3,22.9c1,0.1,2,0.3,3.2,0.4V91.6z"/>
		<path class="st14" d="M387.8-27.4c0,38.4,0,79,0,117.4c-5.7,0-21.5,0-21.7,0c0-36.2,0-74,0-110.3L387.8-27.4z"/>
		<path class="st14" d="M535.9,54.3c0.4-19.7,9.6-34,27.2-42.9c5.8-2.9,12-4.3,18.5-4.4h1.5c0,7.1,0,14.3,0,21.4
			c-2,0.2-3.9,0.5-5.8,1c-10.4,2.5-18.1,11.1-19.5,21.7c-0.2,1.5-0.2,3-0.2,4.5c0,10.9,0,23.7,0,34.6h-21.7V54.3z"/>
		<path class="st14" d="M502.8,9v45.7c0,8.1-6.6,14.7-14.7,14.7s-14.7-6.6-14.7-14.7V9h-21.8v45.7l0,0c0,20.1,16.3,36.4,36.4,36.4
			s36.4-16.3,36.4-36.4l0,0V9H502.8z"/>
	</g>
	<path class="st15" d="M55.1,9.1c-22.8,0-41.3,18.5-41.3,41.3s18.5,41.3,41.3,41.3h41.3V50.3C96.4,27.5,77.9,9.1,55.1,9.1z
		 M62.4,57.6l-3,19.4l-8.9-17.5l-19.3,3.1L45,48.7l-8.9-17.5l17.5,8.9l13.8-13.8l-3.1,19.3l17.5,8.9L62.4,57.6z"/>
</g>
<g id="Layer_6" class="st0">
	<g class="st1">
		<path class="st16" d="M660.7,60c-17.6,0-38.1,0-55.7,0c-0.7,0-1.3,0.1-2.2,0.1c5.1,9,20.3,14.5,31.5,3.4c5,4.7,10,9.4,15.4,14.4
			c-2.8,2.2-5.4,4.5-8.3,6.3c-7.4,4.6-15.4,6.7-24.2,6.1c-9.6-0.7-18-4-25-10.5c-9.4-8.6-13.9-19.4-13.3-32.2
			c0.8-18.6,14.6-34.7,33.4-38.4C633.8,5,655,19,659.7,40.3c0.6,2.8,0.8,5.7,1,8.6c0.2,3.1,0,6.3,0.1,9.5L660.7,60z M602.9,39.1
			c11.3,0,22.6,0,33.8,0c-2.1-4.6-8.5-9.5-16.6-9.8C613.2,29.2,605.1,33.7,602.9,39.1z"/>
		<path class="st16" d="M357.1,49.5c0.2,22.7-18.3,41.5-41.6,41.5c-23.1,0-41.7-18.3-41.6-42.1c0.2-23.3,19.2-40.8,41.5-40.9
			C338.1,8,357.5,26.7,357.1,49.5z M295.6,49.6c-0.2,10.2,8.2,19.8,20,19.9c10.8,0.1,19.7-9,19.7-19.7s-8.3-20.1-19.8-20.1
			C303.8,29.7,295.4,39.4,295.6,49.6z"/>
		<path class="st16" d="M228.7,8.1c22.6-0.3,41.7,18.6,41.6,41.5C270.1,71.4,252.7,91,228.8,91c-23.3,0-41.8-18.8-41.5-42.2
			C187.5,26.5,205.7,7.9,228.7,8.1z M248.7,49.6c-0.3-11.1-8.9-19.8-19.9-19.9c-10.9-0.1-20,9.1-20,20c0,10.7,9.1,19.9,20,19.8
			C239.9,69.4,248.5,60.6,248.7,49.6z"/>
		<path class="st16" d="M186.1,25.8c-5.8,4-11.6,8.1-17.3,12.1c-9-11.4-23.6-9.5-30.7-1.8c-7.2,7.8-6.9,20.2,0.6,27.6
			c7.6,7.6,21.9,8.4,30.3-2.6c5.9,4,11.7,8,17.8,12.1c-3.9,5.5-8.7,9.8-14.5,13c-7.8,4.2-16.1,5.7-24.8,4.7
			c-20.4-2.4-34.6-18.9-36.1-37c-1.9-23.3,13.6-40,30.3-44.4C159.8,4.6,177.9,13.4,186.1,25.8z"/>
		<path class="st16" d="M447.5,91.6H446c-20.5-0.5-38.9-15.3-42.7-36.3c-0.5-2.6-0.8-5.4-0.8-8c-0.1-18.6,0-38.7-0.1-57.3l21.6-6.9
			V9h23.4c0,6.7,0,13.3,0,20.1H424V47c0.1,11.6,8.8,21.4,20.3,22.9c1,0.1,2,0.3,3.2,0.4V91.6z"/>
		<path class="st16" d="M387.8-27.4c0,38.4,0,79,0,117.4c-5.7,0-21.5,0-21.7,0c0-36.2,0-74,0-110.3L387.8-27.4z"/>
		<path class="st16" d="M535.9,54.3c0.4-19.7,9.6-34,27.2-42.9c5.8-2.9,12-4.3,18.5-4.4h1.5c0,7.1,0,14.3,0,21.4
			c-2,0.2-3.9,0.5-5.8,1c-10.4,2.5-18.1,11.1-19.5,21.7c-0.2,1.5-0.2,3-0.2,4.5c0,10.9,0,23.7,0,34.6h-21.7V54.3z"/>
		<path class="st16" d="M502.8,9v45.7c0,8.1-6.6,14.7-14.7,14.7s-14.7-6.6-14.7-14.7V9h-21.8v45.7l0,0c0,20.1,16.3,36.4,36.4,36.4
			s36.4-16.3,36.4-36.4l0,0V9H502.8z"/>
	</g>
	<path class="st17" d="M55.1,9.1c-22.8,0-41.3,18.5-41.3,41.3s18.5,41.3,41.3,41.3h41.3V50.3C96.4,27.5,77.9,9.1,55.1,9.1z
		 M62.4,57.6l-3,19.4l-8.9-17.5l-19.3,3.1L45,48.7l-8.9-17.5l17.5,8.9l13.8-13.8l-3.1,19.3l17.5,8.9L62.4,57.6z"/>
</g>
<g id="Layer_7" class="st0">
	<line class="st18" x1="-44" y1="32.1" x2="718.5" y2="32.1"/>
	<line class="st18" x1="337.2" y1="-237.5" x2="336.8" y2="301.7"/>
	<g class="st1">
		<g>
			<path class="st19" d="M249.3-106.1c-6.7,0-14.5,0-21.1,0c-0.3,0-0.5,0-0.8,0c1.9,3.4,7.7,5.5,11.9,1.3c1.9,1.8,3.8,3.6,5.8,5.5
				c-1.1,0.8-2,1.7-3.1,2.4c-2.8,1.7-5.8,2.5-9.2,2.3c-3.6-0.3-6.8-1.5-9.5-4c-3.6-3.3-5.3-7.4-5.1-12.2c0.3-7.1,5.5-13.2,12.7-14.6
				c8.1-1.6,16.2,3.7,18,11.8c0.2,1.1,0.3,2.2,0.4,3.2c0.1,1.2,0,2.4,0,3.6L249.3-106.1z M227.3-114.1c4.3,0,8.6,0,12.8,0
				c-0.8-1.7-3.2-3.6-6.3-3.7C231.3-117.8,228.2-116.1,227.3-114.1z"/>
			<path class="st19" d="M134.1-110.1c0.1,8.6-6.9,15.8-15.8,15.8c-8.8,0-15.8-6.9-15.8-16c0.1-8.9,7.3-15.5,15.7-15.5
				C126.9-125.9,134.2-118.8,134.1-110.1z M110.8-110.1c-0.1,3.9,3.1,7.5,7.6,7.5c4.1,0,7.5-3.4,7.5-7.5s-3.1-7.6-7.5-7.6
				C113.9-117.6,110.7-113.9,110.8-110.1z"/>
			<path class="st19" d="M85.4-125.8c8.6-0.1,15.8,7.1,15.8,15.8c0,8.3-6.7,15.7-15.7,15.7c-8.8,0-15.9-7.1-15.8-16
				C69.7-118.8,76.6-125.9,85.4-125.8z M92.9-110.1c-0.1-4.2-3.4-7.5-7.6-7.6c-4.1,0-7.6,3.5-7.6,7.6s3.5,7.6,7.6,7.5
				C89.6-102.6,92.9-105.9,92.9-110.1z"/>
			<path class="st19" d="M69.2-119.1c-2.2,1.5-4.4,3.1-6.6,4.6c-3.4-4.3-9-3.6-11.7-0.7c-2.7,3-2.6,7.7,0.2,10.5
				c2.9,2.9,8.3,3.2,11.5-1c2.2,1.5,4.5,3,6.7,4.6c-1.5,2.1-3.3,3.7-5.5,4.9c-2.9,1.6-6.1,2.2-9.4,1.8c-7.7-0.9-13.1-7.2-13.7-14
				c-0.7-8.8,5.2-15.2,11.5-16.9C59.2-127.1,66.1-123.8,69.2-119.1z"/>
			<path class="st19" d="M168.4-94.1h-0.6c-7.8-0.2-14.8-5.8-16.2-13.8c-0.2-1-0.3-2-0.3-3.1c0-7,0-14.7,0-21.7l8.2-2.6v9.8h8.9
				c0,2.6,0,5.1,0,7.6h-8.9v6.8c0,4.4,3.3,8.1,7.7,8.7c0.4,0,0.8,0.1,1.2,0.1L168.4-94.1z"/>
			<path class="st19" d="M145.7-139.3c0,14.6,0,30,0,44.6c-2.2,0-8.1,0-8.2,0c0-13.7,0-28.1,0-41.9L145.7-139.3z"/>
			<path class="st19" d="M201.9-108.3c0.2-7.5,3.7-12.9,10.3-16.3c2.2-1.1,4.6-1.6,7-1.7h0.6c0,2.7,0,5.4,0,8.1
				c-0.8,0.1-1.5,0.2-2.2,0.4c-4,1-6.9,4.2-7.4,8.3c-0.1,0.6-0.1,1.1-0.1,1.7c0,4.1,0,9,0,13.1h-8.2L201.9-108.3z"/>
			<path class="st19" d="M189.4-125.5v17.3c0,3.1-2.5,5.6-5.6,5.6s-5.6-2.5-5.6-5.6v-17.3H170v17.3l0,0c0,7.6,6.2,13.8,13.8,13.8
				s13.8-6.2,13.8-13.8l0,0v-17.3H189.4z"/>
		</g>
		<path class="st19" d="M19.5-125.4c-8.6,0-15.7,7-15.7,15.7c0,8.6,7,15.7,15.7,15.7h15.7v-15.7C35.2-118.4,28.2-125.4,19.5-125.4z
			 M22.3-107l-1.2,7.3l-3.4-6.6l-7.3,1.2l5.3-5.3l-3.4-6.6l6.6,3.4l5.3-5.3l-1.2,7.3l6.6,3.4L22.3-107z"/>
	</g>
	<g class="st1">
		<g>
			<path class="st12" d="M670.2-106.1c-6.7,0-14.5,0-21.1,0c-0.3,0-0.5,0-0.8,0c1.9,3.4,7.7,5.5,11.9,1.3c1.9,1.8,3.8,3.6,5.8,5.5
				c-1.1,0.8-2,1.7-3.1,2.4c-2.8,1.7-5.8,2.5-9.2,2.3c-3.6-0.3-6.8-1.5-9.5-4c-3.6-3.3-5.3-7.4-5.1-12.2c0.3-7.1,5.5-13.2,12.7-14.6
				c8.1-1.6,16.2,3.7,18,11.8c0.2,1.1,0.3,2.2,0.4,3.2c0.1,1.2,0,2.4,0,3.6L670.2-106.1z M648.3-114.1c4.3,0,8.6,0,12.8,0
				c-0.8-1.7-3.2-3.6-6.3-3.7C652.2-117.8,649.1-116.1,648.3-114.1z"/>
			<path class="st12" d="M555-110.1c0.1,8.6-6.9,15.8-15.8,15.8c-8.8,0-15.8-6.9-15.8-16c0.1-8.9,7.3-15.5,15.7-15.5
				C547.8-125.9,555.2-118.8,555-110.1z M531.7-110.1c-0.1,3.9,3.1,7.5,7.6,7.5c4.1,0,7.5-3.4,7.5-7.5s-3.1-7.6-7.5-7.6
				C534.8-117.6,531.6-113.9,531.7-110.1z"/>
			<path class="st12" d="M506.3-125.8c8.6-0.1,15.8,7.1,15.8,15.8c0,8.3-6.7,15.7-15.7,15.7c-8.8,0-15.9-7.1-15.8-16
				C490.7-118.8,497.6-125.9,506.3-125.8z M513.9-110.1c-0.1-4.2-3.4-7.5-7.6-7.6c-4.1,0-7.6,3.5-7.6,7.6s3.5,7.6,7.6,7.5
				C510.5-102.6,513.8-105.9,513.9-110.1z"/>
			<path class="st12" d="M490.1-119.1c-2.2,1.5-4.4,3.1-6.6,4.6c-3.4-4.3-9-3.6-11.7-0.7c-2.7,3-2.6,7.7,0.2,10.5
				c2.9,2.9,8.3,3.2,11.5-1c2.2,1.5,4.5,3,6.7,4.6c-1.5,2.1-3.3,3.7-5.5,4.9c-2.9,1.6-6.1,2.2-9.4,1.8c-7.7-0.9-13.1-7.2-13.7-14
				c-0.7-8.8,5.2-15.2,11.5-16.9C480.1-127.1,487-123.8,490.1-119.1z"/>
			<path class="st12" d="M589.3-94.1h-0.6c-7.8-0.2-14.8-5.8-16.2-13.8c-0.2-1-0.3-2-0.3-3.1c0-7,0-14.7,0-21.7l8.2-2.6v9.8h8.9
				c0,2.6,0,5.1,0,7.6h-8.9v6.8c0,4.4,3.3,8.1,7.7,8.7c0.4,0,0.8,0.1,1.2,0.1L589.3-94.1z"/>
			<path class="st12" d="M566.7-139.3c0,14.6,0,30,0,44.6c-2.2,0-8.1,0-8.2,0c0-13.7,0-28.1,0-41.9L566.7-139.3z"/>
			<path class="st12" d="M622.9-108.3c0.2-7.5,3.7-12.9,10.3-16.3c2.2-1.1,4.6-1.6,7-1.7h0.6c0,2.7,0,5.4,0,8.1
				c-0.8,0.1-1.5,0.2-2.2,0.4c-4,1-6.9,4.2-7.4,8.3c-0.1,0.6-0.1,1.1-0.1,1.7c0,4.1,0,9,0,13.1h-8.2L622.9-108.3z"/>
			<path class="st12" d="M610.3-125.5v17.3c0,3.1-2.5,5.6-5.6,5.6s-5.6-2.5-5.6-5.6v-17.3h-8.3v17.3l0,0c0,7.6,6.2,13.8,13.8,13.8
				s13.8-6.2,13.8-13.8l0,0v-17.3H610.3z"/>
		</g>
		<path class="st12" d="M440.4-125.4c-8.6,0-15.7,7-15.7,15.7c0,8.6,7,15.7,15.7,15.7h15.7v-15.7
			C456.1-118.4,449.1-125.4,440.4-125.4z M443.2-107l-1.2,7.3l-3.4-6.6l-7.3,1.2l5.3-5.3l-3.4-6.6l6.6,3.4l5.3-5.3l-1.2,7.3l6.6,3.4
			L443.2-107z"/>
	</g>
	<g class="st1">
		<g>
			<path class="st14" d="M249.3,191.5c-6.7,0-14.5,0-21.1,0c-0.3,0-0.5,0-0.8,0c1.9,3.4,7.7,5.5,11.9,1.3c1.9,1.8,3.8,3.6,5.8,5.5
				c-1.1,0.8-2,1.7-3.1,2.4c-2.8,1.7-5.8,2.5-9.2,2.3c-3.6-0.3-6.8-1.5-9.5-4c-3.6-3.3-5.3-7.4-5.1-12.2c0.3-7.1,5.5-13.2,12.7-14.6
				c8.1-1.6,16.2,3.7,18,11.8c0.2,1.1,0.3,2.2,0.4,3.2c0.1,1.2,0,2.4,0,3.6L249.3,191.5z M227.3,183.6c4.3,0,8.6,0,12.8,0
				c-0.8-1.7-3.2-3.6-6.3-3.7C231.3,179.8,228.2,181.5,227.3,183.6z"/>
			<path class="st14" d="M134.1,187.5c0.1,8.6-6.9,15.8-15.8,15.8c-8.8,0-15.8-6.9-15.8-16c0.1-8.9,7.3-15.5,15.7-15.5
				C126.9,171.8,134.2,178.9,134.1,187.5z M110.8,187.6c-0.1,3.9,3.1,7.5,7.6,7.5c4.1,0,7.5-3.4,7.5-7.5s-3.1-7.6-7.5-7.6
				C113.9,180,110.7,183.7,110.8,187.6z"/>
			<path class="st14" d="M85.4,171.8c8.6-0.1,15.8,7.1,15.8,15.8c0,8.3-6.7,15.7-15.7,15.7c-8.8,0-15.9-7.1-15.8-16
				C69.7,178.8,76.6,171.7,85.4,171.8z M92.9,187.6c-0.1-4.2-3.4-7.5-7.6-7.6c-4.1,0-7.6,3.5-7.6,7.6s3.5,7.6,7.6,7.5
				C89.6,195.1,92.9,191.7,92.9,187.6z"/>
			<path class="st14" d="M69.2,178.5c-2.2,1.5-4.4,3.1-6.6,4.6c-3.4-4.3-9-3.6-11.7-0.7c-2.7,3-2.6,7.7,0.2,10.5
				c2.9,2.9,8.3,3.2,11.5-1c2.2,1.5,4.5,3,6.7,4.6c-1.5,2.1-3.3,3.7-5.5,4.9c-2.9,1.6-6.1,2.2-9.4,1.8c-7.7-0.9-13.1-7.2-13.7-14
				c-0.7-8.8,5.2-15.2,11.5-16.9C59.2,170.5,66.1,173.8,69.2,178.5z"/>
			<path class="st14" d="M168.4,203.5h-0.6c-7.8-0.2-14.8-5.8-16.2-13.8c-0.2-1-0.3-2-0.3-3.1c0-7,0-14.7,0-21.7l8.2-2.6v9.8h8.9
				c0,2.6,0,5.1,0,7.6h-8.9v6.8c0,4.4,3.3,8.1,7.7,8.7c0.4,0,0.8,0.1,1.2,0.1L168.4,203.5z"/>
			<path class="st14" d="M145.7,158.4c0,14.6,0,30,0,44.6c-2.2,0-8.1,0-8.2,0c0-13.7,0-28.1,0-41.9L145.7,158.4z"/>
			<path class="st14" d="M201.9,189.3c0.2-7.5,3.7-12.9,10.3-16.3c2.2-1.1,4.6-1.6,7-1.7h0.6c0,2.7,0,5.4,0,8.1
				c-0.8,0.1-1.5,0.2-2.2,0.4c-4,1-6.9,4.2-7.4,8.3c-0.1,0.6-0.1,1.1-0.1,1.7c0,4.1,0,9,0,13.1h-8.2L201.9,189.3z"/>
			<path class="st14" d="M189.4,172.2v17.3c0,3.1-2.5,5.6-5.6,5.6s-5.6-2.5-5.6-5.6v-17.3H170v17.3l0,0c0,7.6,6.2,13.8,13.8,13.8
				s13.8-6.2,13.8-13.8l0,0v-17.3H189.4z"/>
		</g>
		<path class="st14" d="M19.5,172.2c-8.6,0-15.7,7-15.7,15.7c0,8.6,7,15.7,15.7,15.7h15.7v-15.7C35.2,179.2,28.2,172.2,19.5,172.2z
			 M22.3,190.6l-1.2,7.3l-3.4-6.6l-7.3,1.2l5.3-5.3l-3.4-6.6l6.6,3.4l5.3-5.3L23,186l6.6,3.4L22.3,190.6z"/>
	</g>
	<g class="st1">
		<g>
			<path class="st16" d="M670.2,191.5c-6.7,0-14.5,0-21.1,0c-0.3,0-0.5,0-0.8,0c1.9,3.4,7.7,5.5,11.9,1.3c1.9,1.8,3.8,3.6,5.8,5.5
				c-1.1,0.8-2,1.7-3.1,2.4c-2.8,1.7-5.8,2.5-9.2,2.3c-3.6-0.3-6.8-1.5-9.5-4c-3.6-3.3-5.3-7.4-5.1-12.2c0.3-7.1,5.5-13.2,12.7-14.6
				c8.1-1.6,16.2,3.7,18,11.8c0.2,1.1,0.3,2.2,0.4,3.2c0.1,1.2,0,2.4,0,3.6L670.2,191.5z M648.3,183.6c4.3,0,8.6,0,12.8,0
				c-0.8-1.7-3.2-3.6-6.3-3.7C652.2,179.8,649.1,181.5,648.3,183.6z"/>
			<path class="st16" d="M555,187.5c0.1,8.6-6.9,15.8-15.8,15.8c-8.8,0-15.8-6.9-15.8-16c0.1-8.9,7.3-15.5,15.7-15.5
				C547.8,171.8,555.2,178.9,555,187.5z M531.7,187.6c-0.1,3.9,3.1,7.5,7.6,7.5c4.1,0,7.5-3.4,7.5-7.5s-3.1-7.6-7.5-7.6
				C534.8,180,531.6,183.7,531.7,187.6z"/>
			<path class="st16" d="M506.3,171.8c8.6-0.1,15.8,7.1,15.8,15.8c0,8.3-6.7,15.7-15.7,15.7c-8.8,0-15.9-7.1-15.8-16
				C490.7,178.8,497.6,171.7,506.3,171.8z M513.9,187.6c-0.1-4.2-3.4-7.5-7.6-7.6c-4.1,0-7.6,3.5-7.6,7.6s3.5,7.6,7.6,7.5
				C510.5,195.1,513.8,191.7,513.9,187.6z"/>
			<path class="st16" d="M490.1,178.5c-2.2,1.5-4.4,3.1-6.6,4.6c-3.4-4.3-9-3.6-11.7-0.7c-2.7,3-2.6,7.7,0.2,10.5
				c2.9,2.9,8.3,3.2,11.5-1c2.2,1.5,4.5,3,6.7,4.6c-1.5,2.1-3.3,3.7-5.5,4.9c-2.9,1.6-6.1,2.2-9.4,1.8c-7.7-0.9-13.1-7.2-13.7-14
				c-0.7-8.8,5.2-15.2,11.5-16.9C480.1,170.5,487,173.8,490.1,178.5z"/>
			<path class="st16" d="M589.3,203.5h-0.6c-7.8-0.2-14.8-5.8-16.2-13.8c-0.2-1-0.3-2-0.3-3.1c0-7,0-14.7,0-21.7l8.2-2.6v9.8h8.9
				c0,2.6,0,5.1,0,7.6h-8.9v6.8c0,4.4,3.3,8.1,7.7,8.7c0.4,0,0.8,0.1,1.2,0.1L589.3,203.5z"/>
			<path class="st16" d="M566.7,158.4c0,14.6,0,30,0,44.6c-2.2,0-8.1,0-8.2,0c0-13.7,0-28.1,0-41.9L566.7,158.4z"/>
			<path class="st16" d="M622.9,189.3c0.2-7.5,3.7-12.9,10.3-16.3c2.2-1.1,4.6-1.6,7-1.7h0.6c0,2.7,0,5.4,0,8.1
				c-0.8,0.1-1.5,0.2-2.2,0.4c-4,1-6.9,4.2-7.4,8.3c-0.1,0.6-0.1,1.1-0.1,1.7c0,4.1,0,9,0,13.1h-8.2L622.9,189.3z"/>
			<path class="st16" d="M610.3,172.2v17.3c0,3.1-2.5,5.6-5.6,5.6s-5.6-2.5-5.6-5.6v-17.3h-8.3v17.3l0,0c0,7.6,6.2,13.8,13.8,13.8
				s13.8-6.2,13.8-13.8l0,0v-17.3H610.3z"/>
		</g>
		<path class="st16" d="M440.4,172.2c-8.6,0-15.7,7-15.7,15.7c0,8.6,7,15.7,15.7,15.7h15.7v-15.7
			C456.1,179.2,449.1,172.2,440.4,172.2z M443.2,190.6l-1.2,7.3l-3.4-6.6l-7.3,1.2l5.3-5.3l-3.4-6.6l6.6,3.4l5.3-5.3l-1.2,7.3
			l6.6,3.4L443.2,190.6z"/>
	</g>
</g>
<path class="st19" d="M63.8,22.5C41,22.5,22.5,41,22.5,63.8C22.5,86.5,41,105,63.8,105H105V63.8C105,41,86.5,22.5,63.8,22.5z
	 M61.7,82.4c0,2.3-1.4,3.8-3.7,3.8c-4.3,0-8.7,0-13,0c-2.3,0-3.7-1.5-3.7-3.8c0-4.3,0-8.6,0-12.9c0-2.3,1.5-3.8,3.9-3.8
	c4.3,0,8.5,0,12.8,0c2.3,0,3.8,1.5,3.8,3.8c0,2.1,0,4.3,0,6.4C61.7,78.1,61.8,80.3,61.7,82.4z M61.7,51.5c0,2.2,0,4.3,0,6.5
	c0,2.3-1.4,3.8-3.7,3.8c-4.3,0-8.7,0-13,0c-2.3,0-3.7-1.5-3.7-3.8c0-4.3,0-8.6,0-12.9c0-2.3,1.5-3.8,3.9-3.8c4.3,0,8.5,0,12.8,0
	c2.3,0,3.8,1.5,3.8,3.8C61.8,47.2,61.7,49.3,61.7,51.5z M86.2,82.4c0,2.3-1.4,3.8-3.7,3.8c-4.3,0-8.7,0-13,0c-2.3,0-3.7-1.5-3.7-3.8
	c0-4.3,0-8.6,0-12.9c0-2.3,1.5-3.8,3.9-3.8c4.3,0,8.5,0,12.8,0c2.3,0,3.8,1.5,3.8,3.8c0,2.1,0,4.3,0,6.4
	C86.2,78.1,86.3,80.3,86.2,82.4z M86.2,51.5c0,2.2,0,4.3,0,6.5c0,2.3-1.4,3.8-3.7,3.8c-4.3,0-8.7,0-13,0c-2.3,0-3.7-1.5-3.7-3.8
	c0-4.3,0-8.6,0-12.9c0-2.3,1.5-3.8,3.9-3.8c4.3,0,8.5,0,12.8,0c2.3,0,3.8,1.5,3.8,3.8C86.3,47.2,86.2,49.3,86.2,51.5z"/>
</svg>
