<?xml version="1.0" encoding="utf-8"?>
<!-- Generator: Adobe Illustrator 24.0.1, SVG Export Plug-In . SVG Version: 6.00 Build 0)  -->
<svg version="1.1" id="Layer_1" xmlns="http://www.w3.org/2000/svg" xmlns:xlink="http://www.w3.org/1999/xlink" x="0px" y="0px"
	 viewBox="0 0 48 48" style="enable-background:new 0 0 48 48;" xml:space="preserve">
<style type="text/css">
	.st0{fill:#FFFFFF;}
	.st1{fill:#F82249;}
</style>
<path class="st0" d="M-65.6,100.7"/>
<g>
	<path class="st1" d="M24,10.4c-7.5,0-13.6,6.1-13.6,13.6c0,7.5,6.1,13.6,13.6,13.6S37.6,31.5,37.6,24C37.6,16.5,31.5,10.4,24,10.4z
		 M17.7,15.7c1.3,0,2.3,1.1,2.3,2.3c0,1.3-1.1,2.4-2.4,2.3c-1.3,0-2.3-1.1-2.3-2.4C15.4,16.8,16.4,15.7,17.7,15.7z M35.1,26.3
		c-1.1,5.2-5.6,9.1-11.1,9.1c-4.6,0-8.5-2.8-10.3-6.7c0,0,0-0.1,0.1-0.1c1.2-1.2,4.2-4.1,5.5-5.4c0.6,0.7,1.2,1.3,1.9,2
		c2.2-2.2,4.2-4.3,6.3-6.4c0.2,0.1,0.2,0.2,0.3,0.3C29.3,20.4,33.4,24.6,35.1,26.3z"/>
	<path class="st1" d="M24,0.8C11.2,0.8,0.8,11.2,0.8,24c0,12.8,10.4,23.2,23.2,23.2h23.2V24C47.2,11.2,36.8,0.8,24,0.8z M24,40.1
		c-8.9,0-16.1-7.2-16.1-16.1S15.1,7.9,24,7.9S40.1,15.1,40.1,24S32.9,40.1,24,40.1z"/>
</g>
</svg>
