<?xml version="1.0" encoding="utf-8"?>
<!-- Generator: Adobe Illustrator 24.0.1, SVG Export Plug-In . SVG Version: 6.00 Build 0)  -->
<svg version="1.1" id="Layer_1" xmlns="http://www.w3.org/2000/svg" xmlns:xlink="http://www.w3.org/1999/xlink" x="0px" y="0px"
	 viewBox="0 0 48 48" style="enable-background:new 0 0 48 48;" xml:space="preserve">
<style type="text/css">
	.st0{fill:#E7324F;}
</style>
<g>
	<path class="st0" d="M38,25.8c0-1.6,0-3.3,0-4.9c-1.1,1.7-2.2,3.3-3.3,4.9C35.9,25.8,37,25.8,38,25.8z"/>
	<path class="st0" d="M12,25.8c0-1.6,0-3.3,0-4.9c-1.1,1.7-2.2,3.3-3.3,4.9C9.9,25.8,10.9,25.8,12,25.8z"/>
	<path class="st0" d="M25.7,21c-0.2-0.5-0.5-0.9-1.1-1c-0.5-0.1-0.9-0.1-1.4,0c-0.5,0.1-0.9,0.4-1.1,1c-0.1,0.4-0.2,0.7-0.3,1.1
		c-0.2,1.2-0.2,2.4-0.1,3.6c0,0.5,0.1,1,0.3,1.4c0.3,0.6,0.6,1,1.3,1.1c0.3,0,0.6,0,0.9,0c0.6,0,1-0.3,1.3-0.8
		c0.2-0.3,0.3-0.6,0.4-0.9c0.2-0.8,0.2-1.7,0.2-2.6c0-0.3,0-0.7,0-1C26,22.2,25.9,21.6,25.7,21z"/>
	<path class="st0" d="M24,0.7C11.2,0.7,0.8,11.1,0.8,24c0,12.8,10.4,23.2,23.2,23.2h23.2V24C47.3,11.1,36.9,0.7,24,0.7z M16.8,28.7
		c-0.5,0-1,0-1.6,0c0,0.9,0,1.7,0,2.5c-1.1,0-2.2,0-3.3,0c0-0.8,0-1.7,0-2.5c-2.2,0-4.4,0-6.6,0c0-0.1,0-0.1,0-0.2
		c0-0.8,0-1.6,0-2.4c0-0.1,0-0.2,0.1-0.3c2-2.9,4-5.7,6-8.6c0.1-0.1,0.1-0.1,0.2-0.1c1.1,0,2.3,0,3.4,0c0,0,0.1,0,0.2,0
		c0,2.9,0,5.7,0,8.6c0.5,0,1.1,0,1.6,0C16.8,26.8,16.8,27.8,16.8,28.7z M28.8,27.9c-0.2,0.6-0.5,1.2-1,1.7c-0.7,0.9-1.7,1.3-2.8,1.5
		c-1.1,0.2-2.2,0.1-3.2-0.2c-0.9-0.3-1.6-0.8-2.1-1.6c-0.6-0.9-1-2-1.1-3.1c-0.3-1.8-0.3-3.5,0.2-5.3c0.2-0.7,0.4-1.3,0.8-1.9
		c0.6-1.1,1.6-1.8,2.8-2.1c1.2-0.3,2.4-0.3,3.6,0.1c0.9,0.3,1.6,0.8,2.1,1.6c0.6,0.9,1,2,1.1,3.1c0.1,0.7,0.2,1.5,0.2,2.2
		C29.4,25.3,29.3,26.6,28.8,27.9z M42.8,28.8c-0.5,0-1.1,0-1.6,0c0,0.8,0,1.7,0,2.5c-1.1,0-2.2,0-3.3,0c0-0.8,0-1.7,0-2.5
		c-2.2,0-4.4,0-6.6,0c0-0.2,0-0.3,0-0.4c0-0.7,0-1.4,0-2.1c0-0.1,0-0.2,0.1-0.2c2-2.9,4-5.7,6-8.6c0-0.1,0.1-0.1,0.2-0.1
		c1.2,0,2.4,0,3.5,0c0,0,0,0,0.1,0c0,2.9,0,5.7,0,8.6c0.5,0,1.1,0,1.6,0C42.8,26.8,42.8,27.8,42.8,28.8z"/>
</g>
</svg>
