<?xml version="1.0" encoding="utf-8"?>
<!-- Generator: Adobe Illustrator 24.0.1, SVG Export Plug-In . SVG Version: 6.00 Build 0)  -->
<svg version="1.1" id="Layer_1" xmlns="http://www.w3.org/2000/svg" xmlns:xlink="http://www.w3.org/1999/xlink" x="0px" y="0px"
	 viewBox="0 0 48 48" style="enable-background:new 0 0 48 48;" xml:space="preserve">
<style type="text/css">
	.st0{fill:#E7324F;}
</style>
<path class="st0" d="M24-0.1C10.8-0.1,0,10.7,0,24c0,13.2,10.8,24,24,24h24V24C48.1,10.7,37.3-0.1,24-0.1z M27.4,34
	c-0.2,1.8-1.8,3-3.4,2.9c-1.8,0.1-3.2-1.1-3.4-2.9v-0.6h6.8L27.4,34L27.4,34z M12.8,31.8l2.1-2.1c0.6-0.6,1-1.6,1-2.5v-8.1
	c0-2.4,1-4.6,2.8-6.1c1.8-1.6,4.1-2.3,6.4-2c4.1,0.6,7.1,4.2,7,8.5v7.8c0,0.9,0.3,1.8,1,2.5l2.1,2.1H12.8V31.8z"/>
</svg>
