<?xml version="1.0" encoding="utf-8"?>
<!-- Generator: Adobe Illustrator 24.0.1, SVG Export Plug-In . SVG Version: 6.00 Build 0)  -->
<svg version="1.1" id="Layer_1" xmlns="http://www.w3.org/2000/svg" xmlns:xlink="http://www.w3.org/1999/xlink" x="0px" y="0px"
	 viewBox="0 0 48 48" style="enable-background:new 0 0 48 48;" xml:space="preserve">
<style type="text/css">
	.st0{fill:#E7324F;}
</style>
<path class="st0" d="M24,0.7C11.2,0.7,0.8,11.1,0.8,24c0,12.8,10.4,23.2,23.2,23.2h23.2V24C47.3,11.1,36.9,0.7,24,0.7z M27.3,33.7
	c-0.2,1.7-1.7,2.9-3.3,2.8c-1.7,0.1-3.1-1.1-3.3-2.8v-0.6h6.7V33.7z M13.2,31.5l2-2c0.6-0.6,1-1.5,1-2.4v-7.8c0-2.3,1-4.4,2.7-5.9
	c1.7-1.5,4-2.2,6.2-1.9c4,0.6,6.9,4.1,6.8,8.2v7.5c0,0.9,0.3,1.7,1,2.4l2,2H13.2z"/>
</svg>
