<?xml version="1.0" encoding="utf-8"?>
<!-- Generator: Adobe Illustrator 24.0.1, SVG Export Plug-In . SVG Version: 6.00 Build 0)  -->
<svg version="1.1" id="Layer_1" xmlns="http://www.w3.org/2000/svg" xmlns:xlink="http://www.w3.org/1999/xlink" x="0px" y="0px"
	 viewBox="0 0 364 80" style="enable-background:new 0 0 364 80;" xml:space="preserve">
<style type="text/css">
	.st0{fill:#E72F4D;}
</style>
<g>
	<path class="st0" d="M364.3,55.6c-9.9,0-21.5,0-31.4,0c-0.4,0-0.7,0-1.2,0.1c2.9,5.1,11.4,8.1,17.7,1.9c2.8,2.6,5.7,5.3,8.7,8.1
		c-1.6,1.2-3,2.5-4.7,3.6c-4.1,2.6-8.7,3.8-13.6,3.4c-5.4-0.4-10.1-2.3-14.1-5.9c-5.3-4.9-7.8-11-7.5-18.2
		c0.5-10.5,8.2-19.6,18.8-21.6c12.1-2.3,24.1,5.5,26.7,17.5c0.3,1.6,0.5,3.2,0.6,4.8c0.1,1.8,0,3.6,0,5.3L364.3,55.6z M331.8,43.8
		c6.4,0,12.7,0,19,0c-1.2-2.6-4.8-5.4-9.3-5.5C337.6,38.2,333,40.8,331.8,43.8z"/>
	<path class="st0" d="M193.3,49.7c0.1,12.8-10.3,23.4-23.4,23.4c-13,0-23.5-10.3-23.4-23.7c0.1-13.1,10.8-23,23.4-23
		C182.7,26.3,193.6,36.9,193.3,49.7z M158.7,49.7c-0.1,5.7,4.6,11.2,11.3,11.2c6.1,0,11.1-5.1,11.1-11.1c0-6-4.7-11.3-11.1-11.3
		C163.3,38.5,158.6,44,158.7,49.7z"/>
	<path class="st0" d="M121,26.4c12.7-0.2,23.5,10.5,23.4,23.4c-0.1,12.3-9.9,23.3-23.4,23.3C108,73,97.5,62.5,97.7,49.3
		C97.8,36.8,108.1,26.2,121,26.4z M132.3,49.7c-0.2-6.3-5-11.2-11.2-11.2c-6.1-0.1-11.3,5.2-11.3,11.3c0,6,5.1,11.2,11.3,11.2
		C127.3,60.9,132.2,56,132.3,49.7z"/>
	<path class="st0" d="M97,36.3c-3.3,2.3-6.5,4.6-9.8,6.8c-5.1-6.4-13.3-5.3-17.3-1c-4.1,4.4-3.9,11.4,0.3,15.6
		c4.3,4.3,12.3,4.7,17.1-1.5c3.3,2.2,6.6,4.5,10,6.8c-2.2,3.1-4.9,5.5-8.2,7.3c-4.4,2.4-9.1,3.2-14,2.6
		c-11.5-1.4-19.5-10.6-20.3-20.9c-1.1-13.1,7.7-22.5,17.1-25C82.2,24.4,92.4,29.4,97,36.3z"/>
	<path class="st0" d="M244.2,73.4l-0.9,0c-11.5-0.3-21.9-8.6-24.1-20.4c-0.3-1.5-0.4-3-0.4-4.5c0-10.5,0-21.8,0-32.3l12.1-3.9
		l0,14.6l13.2,0c0,3.8,0,7.5,0,11.3l-13.2,0l0,10.1c0.1,6.5,5,12.1,11.4,12.9c0.6,0.1,1.1,0.1,1.8,0.2L244.2,73.4z"/>
	<path class="st0" d="M210.6,6.4c0,21.6,0,44.5,0,66.1c-3.2,0-12.1,0-12.2,0c0-20.4,0-41.7,0-62.1L210.6,6.4z"/>
	<path class="st0" d="M294.1,52.4c0.2-11.1,5.4-19.1,15.3-24.2c3.2-1.6,6.8-2.4,10.4-2.5h0.8c0,4,0,8,0,12c-1.1,0.1-2.2,0.3-3.3,0.5
		c-5.9,1.4-10.2,6.3-11,12.2c-0.1,0.8-0.1,1.7-0.1,2.5c0,6.1,0,13.3,0,19.5l-12.2,0L294.1,52.4z"/>
	<path class="st0" d="M275.4,26.9v25.7c0,4.6-3.7,8.3-8.3,8.3s-8.3-3.7-8.3-8.3V26.9h-12.3v25.7h0c0,11.3,9.2,20.5,20.5,20.5
		c11.3,0,20.5-9.2,20.5-20.5h0V26.9H275.4z"/>
</g>
<path class="st0" d="M23.2,26.9C10.4,26.9,0,37.3,0,50.2C0,63,10.4,73.4,23.2,73.4h23.2V50.2C46.5,37.3,36.1,26.9,23.2,26.9z
	 M27.3,54.3l-1.7,10.9l-5-9.8L9.7,57.1l7.8-7.8l-5-9.8l9.8,5l7.8-7.8l-1.7,10.9l9.8,5L27.3,54.3z"/>
</svg>
