<?xml version="1.0" encoding="utf-8"?>
<!-- Generator: Adobe Illustrator 24.0.1, SVG Export Plug-In . SVG Version: 6.00 Build 0)  -->
<svg version="1.1" id="Layer_1" xmlns="http://www.w3.org/2000/svg" xmlns:xlink="http://www.w3.org/1999/xlink" x="0px" y="0px"
	 viewBox="0 0 820 275" style="enable-background:new 0 0 820 275;" xml:space="preserve">
<style type="text/css">
	.st0{fill:#D5D5D5;}
	.st1{fill:#E72F4D;}
	.st2{fill:#FFFFFF;}
</style>
<rect x="-0.2" class="st0" width="820" height="275"/>
<g>
	<g>
		<path class="st1" d="M410.3,31.8c-2.5,0-4.6,2.1-4.6,4.6s2.1,4.6,4.6,4.6s4.6-2.1,4.6-4.6C414.9,33.8,412.8,31.8,410.3,31.8z
			 M408.1,33.6c0.4,0,0.8,0.4,0.8,0.8c0,0.4-0.4,0.8-0.8,0.8s-0.8-0.4-0.8-0.8C407.4,33.9,407.7,33.6,408.1,33.6z M414,37.1
			c-0.4,1.8-1.9,3.1-3.8,3.1c-1.6,0-2.9-0.9-3.5-2.3l0,0c0.4-0.4,1.4-1.4,1.9-1.8c0.2,0.2,0.4,0.4,0.6,0.7c0.7-0.7,1.4-1.5,2.1-2.2
			c0.1,0,0.1,0.1,0.1,0.1C412.1,35.1,413.4,36.6,414,37.1z"/>
		<path class="st1" d="M410.3,28.5c-4.3,0-7.8,3.5-7.8,7.8s3.5,7.8,7.8,7.8h7.8v-7.8C418.1,32,414.6,28.5,410.3,28.5z M410.3,41.8
			c-3,0-5.4-2.4-5.4-5.4s2.4-5.4,5.4-5.4s5.4,2.4,5.4,5.4S413.3,41.8,410.3,41.8z"/>
	</g>
	<g>
		<path class="st2" d="M352.6,54.6c0.3,0.4,0.5,0.9,0.5,1.4s-0.1,0.9-0.4,1.3c-0.2,0.4-0.6,0.7-1,0.9s-1,0.3-1.6,0.3h-3.9v-9h3.7
			c0.6,0,1.1,0.1,1.6,0.3c0.4,0.2,0.8,0.5,1,0.8c0.2,0.4,0.3,0.8,0.3,1.2c0,0.5-0.1,1-0.4,1.3c-0.3,0.4-0.7,0.6-1.1,0.7
			C351.8,53.9,352.2,54.2,352.6,54.6z M348,53.2h1.7c0.4,0,0.8-0.1,1-0.3s0.3-0.5,0.3-0.8s-0.1-0.6-0.3-0.8c-0.2-0.2-0.6-0.3-1-0.3
			H348V53.2z M350.9,56.7c0.2-0.2,0.4-0.5,0.4-0.9s-0.1-0.7-0.4-0.9s-0.6-0.3-1-0.3H348V57h1.8C350.3,57,350.6,56.9,350.9,56.7z"/>
		<path class="st2" d="M360,56.7h-3.6l-0.6,1.7h-1.9l3.2-9h2.1l3.2,9h-1.9L360,56.7z M359.5,55.3l-1.3-3.8l-1.3,3.8H359.5z"/>
		<path class="st2" d="M371.5,58.5h-1.8l-4.1-6.2v6.2h-1.8v-9h1.8l4.1,6.2v-6.2h1.8V58.5z"/>
		<path class="st2" d="M381,58.5h-1.8l-4.1-6.2v6.2h-1.8v-9h1.8l4.1,6.2v-6.2h1.8V58.5z"/>
		<path class="st2" d="M384.6,50.9v2.3h3v1.4h-3V57h3.4v1.5h-5.2v-9h5.2V51L384.6,50.9L384.6,50.9z"/>
		<path class="st2" d="M394.3,58.5l-2-3.5h-0.9v3.5h-1.8v-9h3.4c0.7,0,1.3,0.1,1.8,0.4c0.5,0.2,0.9,0.6,1.1,1s0.4,0.9,0.4,1.4
			c0,0.6-0.2,1.1-0.5,1.6s-0.9,0.8-1.5,1l2.2,3.7h-2.2V58.5z M391.4,53.6h1.5c0.5,0,0.9-0.1,1.1-0.4c0.2-0.2,0.4-0.6,0.4-1
			s-0.1-0.7-0.4-1c-0.2-0.2-0.6-0.3-1.1-0.3h-1.5V53.6z"/>
		<path class="st2" d="M408.7,58.5h-1.8l-4.1-6.2v6.2H401v-9h1.8l4.1,6.2v-6.2h1.8L408.7,58.5L408.7,58.5z"/>
		<path class="st2" d="M412.4,58c-0.7-0.4-1.3-0.9-1.7-1.6c-0.4-0.7-0.6-1.5-0.6-2.4s0.2-1.7,0.6-2.4s1-1.3,1.7-1.6
			c0.7-0.4,1.5-0.6,2.3-0.6c0.9,0,1.6,0.2,2.3,0.6c0.7,0.4,1.3,0.9,1.7,1.6c0.4,0.7,0.6,1.5,0.6,2.4s-0.2,1.7-0.6,2.4
			s-1,1.3-1.7,1.6c-0.7,0.4-1.5,0.6-2.3,0.6C413.8,58.6,413.1,58.4,412.4,58z M416.1,56.6c0.4-0.2,0.7-0.6,1-1.1
			c0.2-0.5,0.3-1,0.3-1.6s-0.1-1.1-0.3-1.6c-0.2-0.5-0.6-0.8-1-1s-0.9-0.4-1.4-0.4s-1,0.1-1.4,0.4c-0.4,0.2-0.7,0.6-1,1
			c-0.2,0.5-0.3,1-0.3,1.6s0.1,1.1,0.3,1.6c0.2,0.5,0.6,0.8,1,1.1c0.4,0.2,0.9,0.4,1.4,0.4C415.2,56.9,415.7,56.8,416.1,56.6z"/>
		<path class="st2" d="M426.8,49.4v1.5h-2.4v7.6h-1.8v-7.6h-2.4v-1.5H426.8z"/>
		<path class="st2" d="M436.8,49.4v1.5H433v2.3h2.9v1.4H433v3.8h-1.8v-9H436.8z"/>
		<path class="st2" d="M439.9,58c-0.7-0.4-1.3-0.9-1.7-1.6c-0.4-0.7-0.6-1.5-0.6-2.4s0.2-1.7,0.6-2.4s1-1.3,1.7-1.6
			c0.7-0.4,1.5-0.6,2.3-0.6c0.9,0,1.6,0.2,2.3,0.6c0.7,0.4,1.3,0.9,1.7,1.6c0.4,0.7,0.6,1.5,0.6,2.4s-0.2,1.7-0.6,2.4
			s-1,1.3-1.7,1.6c-0.7,0.4-1.5,0.6-2.3,0.6S440.6,58.4,439.9,58z M443.7,56.6c0.4-0.2,0.7-0.6,1-1.1c0.2-0.5,0.3-1,0.3-1.6
			s-0.1-1.1-0.3-1.6c-0.2-0.5-0.6-0.8-1-1s-0.9-0.4-1.4-0.4s-1,0.1-1.4,0.4c-0.4,0.2-0.7,0.6-1,1c-0.2,0.5-0.3,1-0.3,1.6
			s0.1,1.1,0.3,1.6c0.2,0.5,0.6,0.8,1,1.1c0.4,0.2,0.9,0.4,1.4,0.4C442.8,56.9,443.2,56.8,443.7,56.6z"/>
		<path class="st2" d="M450,49.4V55c0,0.6,0.2,1.1,0.5,1.4c0.3,0.3,0.8,0.5,1.3,0.5c0.6,0,1-0.2,1.4-0.5c0.3-0.3,0.5-0.8,0.5-1.4
			v-5.6h1.8V55c0,0.8-0.2,1.4-0.5,1.9s-0.8,0.9-1.3,1.2c-0.6,0.3-1.2,0.4-1.9,0.4c-0.7,0-1.3-0.1-1.8-0.4c-0.5-0.3-1-0.7-1.3-1.2
			s-0.5-1.2-0.5-1.9v-5.6H450z"/>
		<path class="st2" d="M464.9,58.5h-1.8l-4.1-6.2v6.2h-1.8v-9h1.8l4.1,6.2v-6.2h1.8V58.5z"/>
		<path class="st2" d="M472.4,50c0.7,0.4,1.3,0.9,1.7,1.6c0.4,0.7,0.6,1.5,0.6,2.4s-0.2,1.7-0.6,2.4s-0.9,1.2-1.7,1.6
			c-0.7,0.4-1.6,0.6-2.5,0.6h-3.2v-9h3.2C470.8,49.4,471.6,49.6,472.4,50z M472,56.2c0.5-0.5,0.8-1.2,0.8-2.2c0-0.9-0.3-1.7-0.8-2.2
			s-1.2-0.8-2.2-0.8h-1.3v6h1.3C470.7,56.9,471.5,56.7,472,56.2z"/>
	</g>
</g>
</svg>
